<?xml version="1.0" encoding="UTF-8"?>
<!DOCTYPE svg PUBLIC "-//W3C//DTD SVG 1.0//EN" "http://www.w3.org/TR/2001/REC-SVG-20010904/DTD/svg10.dtd">
<svg xmlns="http://www.w3.org/2000/svg">
    <g transform="translate(80, 400)">
        <line x1="0"
            y1="0"
            x2="500"
            y2="0"
            stroke="black"
            stroke-width="2px"/>
        <line x1="0"
            y1="0"
            x2="0"
            y2="-200"
            stroke="black"
            stroke-width="2px"/>
        <rect x="30" y="-100" height="100" width="70" fill="blue"/>
        <rect x="30"
            y="-38.002436053593179"
            height="38.002436053593179"
            width="70"
            fill="yellow"/>
        <rect x="200" y="-100" height="100" width="70" fill="blue"/>
        <rect x="200"
            y="-27.7777777777777778"
            height="27.7777777777777778"
            width="70"
            fill="yellow"/>
        <text x="30" y="-250" stroke="black" stroke-width="1">
            Use of Pronouns in Interviews by Gender (%)
            
        </text>
        <text x="30" y="-230" stroke="black" stroke-width="1">
            Blue represent female interviewees and Yellow represents male interviewees.
            Interviews are weighed.
        </text>
        <text x="30" y="40" stroke="black" stroke-width="1">
            Total
        </text>
        <text x="200" y="40" stroke="black" stroke-width="1">
            Plural
        </text>
        <line x1="-3"
            y1="-10"
            x2="3"
            y2="-10"
            stroke="black"
            stroke-width="2"/>
        <line x1="-3"
            y1="-20"
            x2="3"
            y2="-20"
            stroke="black"
            stroke-width="2"/>
        <line x1="-3"
            y1="-30"
            x2="3"
            y2="-30"
            stroke="black"
            stroke-width="2"/>
        <line x1="-3"
            y1="-40"
            x2="3"
            y2="-40"
            stroke="black"
            stroke-width="2"/>
        <line x1="-3"
            y1="-50"
            x2="3"
            y2="-50"
            stroke="black"
            stroke-width="2"/>
        <line x1="-3"
            y1="-60"
            x2="3"
            y2="-60"
            stroke="black"
            stroke-width="2"/>
        <line x1="-3"
            y1="-70"
            x2="3"
            y2="-70"
            stroke="black"
            stroke-width="2"/>
        <line x1="-3"
            y1="-80"
            x2="3"
            y2="-80"
            stroke="black"
            stroke-width="2"/>
        <line x1="-3"
            y1="-90"
            x2="3"
            y2="-90"
            stroke="black"
            stroke-width="2"/>
        <line x1="-3"
            y1="-100"
            x2="3"
            y2="-100"
            stroke="black"
            stroke-width="2"/>
        <text x="-50" y="-100" stroke="black" stroke-width="1">
            100%
        </text>
    </g>
</svg>


